# xmcd CD database file
#
# Track frame offsets:
#	150
#	36017
#	62640
#	85142
#	112557
#	134762
#	153247
#	174425
#	207507
#	239172
#
# Disc length: 3372 seconds
#
# Revision: 2
# Processed by: cddbd v1.5.2PL0 Copyright (c) Steve Scherf et al.
# Submitted via: CDex 1.81
#
DISCID=830d2a0a
DTITLE=the Great Jazz Trio - Great Standards Vol. 2
DYEAR=1988
DGENRE=Jazz
TTITLE0=Angel Eyes
TTITLE1=Autumn Leaves
TTITLE2=Black Orpheus
TTITLE3=Gone with The Wind
TTITLE4=Over The Rainbow
TTITLE5=Softly as in a Morning Sunrise
TTITLE6=Misty
TTITLE7=On Green Dolphin Street
TTITLE8=Alone Together
TTITLE9=Dark Eyes
EXTD=YEAR: 1988
EXTT0=
EXTT1=
EXTT2=
EXTT3=
EXTT4=
EXTT5=
EXTT6=
EXTT7=
EXTT8=
EXTT9=
PLAYORDER=
